<svg width="306" height="225" viewBox="0 0 306 225" fill="none" xmlns="http://www.w3.org/2000/svg">
<path d="M120.368 131.396C125.656 131.396 130.504 132.586 134.911 134.966C139.318 137.346 142.799 140.651 145.355 144.882C147.999 149.024 149.321 153.696 149.321 158.896C149.321 164.096 147.999 168.9 145.355 173.306C142.711 177.625 139.141 181.063 134.646 183.619C130.239 186.175 125.48 187.453 120.368 187.453H60.033C59.1516 187.453 58.7109 187.012 58.7109 186.131V168.811C58.7109 167.93 59.1516 167.489 60.033 167.489H66.7827C65.8132 164.845 65.3284 162.157 65.3284 159.425C65.3284 156.34 65.9453 153.299 67.1793 150.302H66.1638C60.9431 150.302 56.7109 146.07 56.7109 140.849C56.7109 135.629 60.9431 131.396 66.1638 131.396H120.368ZM84.763 158.896C84.763 161.187 85.6003 163.215 87.2749 164.977C88.9496 166.652 90.9768 167.489 93.3565 167.489C95.7362 167.489 97.7634 166.652 99.4381 164.977C101.113 163.215 101.95 161.187 101.95 158.896C101.95 156.516 101.113 154.489 99.4381 152.814C97.7634 151.14 95.7362 150.302 93.3565 150.302C90.9768 150.302 88.9496 151.14 87.2749 152.814C85.6003 154.489 84.763 156.516 84.763 158.896ZM120.368 167.489C122.924 167.489 125.039 166.696 126.714 165.11C128.477 163.435 129.358 161.364 129.358 158.896C129.358 156.428 128.477 154.401 126.714 152.814C125.039 151.14 122.924 150.302 120.368 150.302H116.89C117.859 153.387 118.344 156.428 118.344 159.425C118.344 162.245 117.947 164.933 117.154 167.489H120.368Z" fill="white"/>
<path fill-rule="evenodd" clip-rule="evenodd" d="M61.8734 167.489C62.7548 167.489 63.1955 167.93 63.1955 168.812V186.131C63.1955 187.012 62.7548 187.453 61.8734 187.453H55.9241V215.812C55.9241 220.886 51.8102 225 46.7356 225C41.6609 225 37.5471 220.886 37.5471 215.812V187.453H28.9536C23.6653 187.453 18.8176 186.263 14.4107 183.883C10.0038 181.504 6.47821 178.242 3.83405 174.1C1.27802 169.869 0 165.154 0 159.954C0 154.665 1.27802 149.818 3.83405 145.411C6.47821 141.004 10.0038 137.522 14.4107 134.966C18.8176 132.322 23.6653 131 28.9536 131C34.0656 131 38.737 132.322 42.9677 134.966C47.1983 137.522 50.5035 141.004 52.8833 145.411C55.263 149.818 56.4529 154.665 56.4529 159.954V167.489H61.8734ZM35.0352 153.475C36.7098 155.15 37.5471 157.265 37.5471 159.821V168.679H28.9536C26.3976 168.679 24.2382 167.842 22.4754 166.167C20.8008 164.493 19.9634 162.377 19.9634 159.821C19.9634 157.265 20.8008 155.15 22.4754 153.475C24.2382 151.801 26.3976 150.963 28.9536 150.963C31.4215 150.963 33.4487 151.801 35.0352 153.475Z" fill="white"/>
<path d="M276.368 131.396C281.656 131.396 286.504 132.586 290.911 134.966C295.318 137.346 298.799 140.651 301.355 144.882C303.999 149.024 305.321 153.696 305.321 158.896C305.321 164.096 303.999 168.9 301.355 173.306C298.711 177.625 295.141 181.063 290.646 183.619C286.239 186.175 281.48 187.453 276.368 187.453H216.033C215.152 187.453 214.711 187.012 214.711 186.131V168.811C214.711 167.93 215.152 167.489 216.033 167.489H222.783C221.813 164.845 221.328 162.157 221.328 159.425C221.328 156.34 221.945 153.299 223.179 150.302H222.164C216.943 150.302 212.711 146.07 212.711 140.849C212.711 135.629 216.943 131.396 222.164 131.396H276.368ZM240.763 158.896C240.763 161.187 241.6 163.215 243.275 164.977C244.95 166.652 246.977 167.489 249.356 167.489C251.736 167.489 253.763 166.652 255.438 164.977C257.113 163.215 257.95 161.187 257.95 158.896C257.95 156.516 257.113 154.489 255.438 152.814C253.763 151.14 251.736 150.302 249.356 150.302C246.977 150.302 244.95 151.14 243.275 152.814C241.6 154.489 240.763 156.516 240.763 158.896ZM276.368 167.489C278.924 167.489 281.039 166.696 282.714 165.11C284.477 163.435 285.358 161.364 285.358 158.896C285.358 156.428 284.477 154.401 282.714 152.814C281.039 151.14 278.924 150.302 276.368 150.302H272.89C273.859 153.387 274.344 156.428 274.344 159.425C274.344 162.245 273.947 164.933 273.154 167.489H276.368Z" fill="white"/>
<path fill-rule="evenodd" clip-rule="evenodd" d="M217.873 167.489C218.755 167.489 219.195 167.93 219.195 168.812V186.131C219.195 187.012 218.755 187.453 217.873 187.453H211.924V215.812C211.924 220.886 207.81 225 202.736 225C197.661 225 193.547 220.886 193.547 215.812V187.453H184.954C179.665 187.453 174.818 186.263 170.411 183.883C166.004 181.504 162.478 178.242 159.834 174.1C157.278 169.869 156 165.154 156 159.954C156 154.665 157.278 149.818 159.834 145.411C162.478 141.004 166.004 137.522 170.411 134.966C174.818 132.322 179.665 131 184.954 131C190.066 131 194.737 132.322 198.968 134.966C203.198 137.522 206.504 141.004 208.883 145.411C211.263 149.818 212.453 154.665 212.453 159.954V167.489H217.873ZM191.035 153.475C192.71 155.15 193.547 157.265 193.547 159.821V168.679H184.954C182.398 168.679 180.238 167.842 178.475 166.167C176.801 164.493 175.963 162.377 175.963 159.821C175.963 157.265 176.801 155.15 178.475 153.475C180.238 151.801 182.398 150.963 184.954 150.963C187.421 150.963 189.449 151.801 191.035 153.475Z" fill="white"/>
<circle cx="14.5" cy="102.5" r="14.5" fill="white"/>
<circle cx="58" cy="67" r="29" fill="white"/>
<circle cx="134.5" cy="40.5" r="40.5" fill="white"/>
</svg>
