<svg width="158" height="84" viewBox="0 0 158 84" fill="none" xmlns="http://www.w3.org/2000/svg">
    <path
        d="M157.501 17.9999V42.3999V50.438C157.501 66.2123 144.474 78.9999 128.404 78.9999C118.184 78.9999 108.713 73.736 103.454 65.133L99.5015 58.6665H111.93V42.3999C111.93 28.9241 123.059 17.9999 136.787 17.9999H157.501Z"
        fill="white" />
    <path
        d="M21.3042 41.96C21.5709 41.96 21.7042 42.0933 21.7042 42.36V47.6C21.7042 47.8667 21.5709 48 21.3042 48H19.5042C19.2909 49.84 18.7442 51.3867 17.8642 52.64C17.0109 53.8933 15.7709 55.0133 14.1442 56C12.5442 57.0133 10.3042 58.1333 7.42422 59.36L5.62422 54.28C7.99755 53.2667 9.75755 52.44 10.9042 51.8C12.0776 51.16 12.8776 50.56 13.3042 50C13.7309 49.44 13.9442 48.7733 13.9442 48H11.3442C9.74422 48 8.27755 47.64 6.94422 46.92C5.61089 46.2 4.54422 45.2133 3.74422 43.96C2.97089 42.68 2.58422 41.2533 2.58422 39.68C2.58422 38.08 2.97089 36.6133 3.74422 35.28C4.54422 33.9467 5.61089 32.8933 6.94422 32.12C8.27755 31.32 9.74422 30.92 11.3442 30.92C12.8909 30.92 14.3042 31.32 15.5842 32.12C16.8642 32.8933 17.8642 33.9467 18.5842 35.28C19.3042 36.6133 19.6642 38.08 19.6642 39.68V41.96H21.3042ZM13.9442 39.64C13.9442 38.8667 13.6909 38.2267 13.1842 37.72C12.7042 37.2133 12.0909 36.96 11.3442 36.96C10.5709 36.96 9.91755 37.2133 9.38422 37.72C8.87755 38.2267 8.62422 38.8667 8.62422 39.64C8.62422 40.4133 8.87755 41.0533 9.38422 41.56C9.91755 42.0667 10.5709 42.32 11.3442 42.32H13.9442V39.64ZM42.573 31.04C44.173 31.04 45.6396 31.4 46.973 32.12C48.3063 32.84 49.3596 33.84 50.133 35.12C50.933 36.3733 51.333 37.7867 51.333 39.36C51.333 40.9333 50.933 42.3867 50.133 43.72C49.333 45.0267 48.253 46.0667 46.893 46.84C45.5596 47.6133 44.1196 48 42.573 48H21.293C21.0263 48 20.893 47.8667 20.893 47.6V42.36C20.893 42.0933 21.0263 41.96 21.293 41.96H25.453C25.1596 41.16 25.013 40.3467 25.013 39.52C25.013 38.5867 25.1996 37.6667 25.573 36.76H23.013V31.04H42.573ZM30.893 39.36C30.893 40.0533 31.1463 40.6667 31.653 41.2C32.1596 41.7067 32.773 41.96 33.493 41.96C34.213 41.96 34.8263 41.7067 35.333 41.2C35.8396 40.6667 36.093 40.0533 36.093 39.36C36.093 38.64 35.8396 38.0267 35.333 37.52C34.8263 37.0133 34.213 36.76 33.493 36.76C32.773 36.76 32.1596 37.0133 31.653 37.52C31.1463 38.0267 30.893 38.64 30.893 39.36ZM42.573 41.96C43.3463 41.96 43.9863 41.72 44.493 41.24C45.0263 40.7333 45.293 40.1067 45.293 39.36C45.293 38.6133 45.0263 38 44.493 37.52C43.9863 37.0133 43.3463 36.76 42.573 36.76H40.613C40.9063 37.6933 41.053 38.6133 41.053 39.52C41.053 40.3733 40.933 41.1867 40.693 41.96H42.573ZM73.1011 41.96C73.3678 41.96 73.5011 42.0933 73.5011 42.36V47.6C73.5011 47.8667 73.3678 48 73.1011 48H71.3011C71.0878 49.84 70.5411 51.3867 69.6611 52.64C68.8078 53.8933 67.5678 55.0133 65.9411 56C64.3411 57.0133 62.1011 58.1333 59.2211 59.36L57.4211 54.28C59.7944 53.2667 61.5544 52.44 62.7011 51.8C63.8744 51.16 64.6744 50.56 65.1011 50C65.5278 49.44 65.7411 48.7733 65.7411 48H63.1411C61.5411 48 60.0744 47.64 58.7411 46.92C57.4078 46.2 56.3411 45.2133 55.5411 43.96C54.7678 42.68 54.3811 41.2533 54.3811 39.68C54.3811 38.08 54.7678 36.6133 55.5411 35.28C56.3411 33.9467 57.4078 32.8933 58.7411 32.12C60.0744 31.32 61.5411 30.92 63.1411 30.92C64.6878 30.92 66.1011 31.32 67.3811 32.12C68.6611 32.8933 69.6611 33.9467 70.3811 35.28C71.1011 36.6133 71.4611 38.08 71.4611 39.68V41.96H73.1011ZM65.7411 39.64C65.7411 38.8667 65.4878 38.2267 64.9811 37.72C64.5011 37.2133 63.8878 36.96 63.1411 36.96C62.3678 36.96 61.7144 37.2133 61.1811 37.72C60.6744 38.2267 60.4211 38.8667 60.4211 39.64C60.4211 40.4133 60.6744 41.0533 61.1811 41.56C61.7144 42.0667 62.3678 42.32 63.1411 42.32H65.7411V39.64ZM94.3698 31.04C95.9698 31.04 97.4365 31.4 98.7698 32.12C100.103 32.84 101.157 33.84 101.93 35.12C102.73 36.3733 103.13 37.7867 103.13 39.36C103.13 40.9333 102.73 42.3867 101.93 43.72C101.13 45.0267 100.05 46.0667 98.6898 46.84C97.3565 47.6133 95.9165 48 94.3698 48H73.0898C72.8232 48 72.6898 47.8667 72.6898 47.6V42.36C72.6898 42.0933 72.8232 41.96 73.0898 41.96H77.2498C76.9565 41.16 76.8098 40.3467 76.8098 39.52C76.8098 38.5867 76.9965 37.6667 77.3698 36.76H74.8098V31.04H94.3698ZM82.6898 39.36C82.6898 40.0533 82.9432 40.6667 83.4498 41.2C83.9565 41.7067 84.5698 41.96 85.2898 41.96C86.0098 41.96 86.6232 41.7067 87.1298 41.2C87.6365 40.6667 87.8898 40.0533 87.8898 39.36C87.8898 38.64 87.6365 38.0267 87.1298 37.52C86.6232 37.0133 86.0098 36.76 85.2898 36.76C84.5698 36.76 83.9565 37.0133 83.4498 37.52C82.9432 38.0267 82.6898 38.64 82.6898 39.36ZM94.3698 41.96C95.1432 41.96 95.7832 41.72 96.2898 41.24C96.8232 40.7333 97.0898 40.1067 97.0898 39.36C97.0898 38.6133 96.8232 38 96.2898 37.52C95.7832 37.0133 95.1432 36.76 94.3698 36.76H92.4098C92.7032 37.6933 92.8498 38.6133 92.8498 39.52C92.8498 40.3733 92.7298 41.1867 92.4898 41.96H94.3698Z"
        fill="white" />
    <path
        d="M2.7988 71.86C2.7988 71.252 2.96413 70.6493 3.2948 70.052C3.63613 69.444 4.21747 68.7347 5.0388 67.924L4.3348 67.204L5.2788 66.196C6.34547 67.1987 7.14547 68.0147 7.6788 68.644C8.2228 69.2627 8.59613 69.8013 8.7988 70.26C9.00147 70.708 9.1028 71.188 9.1028 71.7C9.1028 72.2653 8.96413 72.772 8.6868 73.22C8.40947 73.668 8.02013 74.02 7.5188 74.276C7.02813 74.532 6.4628 74.66 5.8228 74.66C4.91613 74.66 4.18547 74.404 3.6308 73.892C3.07613 73.3693 2.7988 72.692 2.7988 71.86ZM7.7748 71.7C7.7748 71.252 7.64147 70.8147 7.3748 70.388C7.1188 69.9507 6.64413 69.412 5.9508 68.772C5.2788 69.4227 4.80413 69.9773 4.5268 70.436C4.26013 70.884 4.1268 71.332 4.1268 71.78C4.1268 72.2173 4.28147 72.58 4.5908 72.868C4.9108 73.1453 5.33747 73.284 5.8708 73.284C6.42547 73.284 6.8788 73.1347 7.2308 72.836C7.59347 72.5373 7.7748 72.1587 7.7748 71.7ZM17.7382 69.972C18.0795 70.3667 18.3248 70.74 18.4742 71.092C18.6235 71.4333 18.6982 71.78 18.6982 72.132C18.6982 72.836 18.4528 73.4067 17.9622 73.844C17.4715 74.2813 16.7835 74.5 15.8982 74.5H11.3382L11.2102 73.124H15.8982C16.3675 73.124 16.7302 73.0333 16.9862 72.852C17.2422 72.6707 17.3702 72.4253 17.3702 72.116C17.3702 71.924 17.3168 71.732 17.2102 71.54C17.1142 71.3373 16.9488 71.0973 16.7142 70.82L13.7222 67.38L14.6662 66.436L17.7382 69.972ZM24.3079 73.124C24.3613 73.124 24.3986 73.172 24.4199 73.268C24.4519 73.3533 24.4679 73.54 24.4679 73.828C24.4679 74.1053 24.4519 74.2867 24.4199 74.372C24.3986 74.4573 24.3613 74.5 24.3079 74.5H23.8919C23.0813 74.5 22.4626 74.26 22.0359 73.78C21.6199 73.2893 21.4119 72.596 21.4119 71.7V64.148H22.7399V71.636C22.7399 72.628 23.1453 73.124 23.9559 73.124H24.3079ZM26.7157 73.124C26.8223 73.124 26.8757 73.3587 26.8757 73.828C26.8757 74.116 26.8597 74.3027 26.8277 74.388C26.7957 74.4627 26.7583 74.5 26.7157 74.5H24.3157C24.209 74.5 24.1557 74.276 24.1557 73.828C24.1557 73.3587 24.209 73.124 24.3157 73.124H26.7157ZM29.1219 73.124C29.2286 73.124 29.2819 73.3587 29.2819 73.828C29.2819 74.116 29.2659 74.3027 29.2339 74.388C29.2019 74.4627 29.1646 74.5 29.1219 74.5H26.7219C26.6153 74.5 26.5619 74.276 26.5619 73.828C26.5619 73.3587 26.6153 73.124 26.7219 73.124H29.1219ZM30.3762 73.124C30.8455 73.124 31.2082 73.012 31.4642 72.788C31.7308 72.564 31.8642 72.2547 31.8642 71.86V69.348H33.2082V71.86C33.2082 72.7027 33.6828 73.124 34.6322 73.124C35.1015 73.124 35.4642 73.012 35.7202 72.788C35.9868 72.564 36.1202 72.2547 36.1202 71.86V69.348H37.4482V71.86C37.4482 72.2653 37.5602 72.58 37.7842 72.804C38.0188 73.0173 38.3602 73.124 38.8082 73.124C39.2562 73.124 39.5975 73.0173 39.8322 72.804C40.0668 72.58 40.1842 72.2653 40.1842 71.86V69.348H41.5122V71.828C41.5122 72.66 41.2668 73.316 40.7762 73.796C40.2962 74.2653 39.6402 74.5 38.8082 74.5C37.7308 74.5 37.0375 74.1693 36.7282 73.508C36.3335 74.1693 35.6348 74.5 34.6322 74.5C33.5015 74.5 32.7815 74.1693 32.4722 73.508C32.0775 74.1693 31.3788 74.5 30.3762 74.5H29.1282C29.0215 74.5 28.9682 74.276 28.9682 73.828C28.9682 73.3587 29.0215 73.124 29.1282 73.124H30.3762ZM54.0042 73.988C54.0042 74.8947 53.8335 75.6787 53.4922 76.34C53.1508 77.0013 52.6655 77.508 52.0362 77.86C51.4175 78.2227 50.6868 78.404 49.8442 78.404H47.8762L47.7482 77.028H49.8602C50.7135 77.028 51.3908 76.7987 51.8922 76.34C52.4042 75.892 52.6655 75.2787 52.6762 74.5H51.0762C49.9775 74.5 49.1828 74.276 48.6922 73.828C48.2122 73.3693 47.9722 72.66 47.9722 71.7C47.9722 71.0387 48.1002 70.452 48.3562 69.94C48.6122 69.4173 48.9695 69.0173 49.4282 68.74C49.8975 68.452 50.4255 68.308 51.0122 68.308C51.9402 68.308 52.6708 68.6173 53.2042 69.236C53.7375 69.8547 54.0042 70.7027 54.0042 71.78V73.988ZM49.3002 71.62C49.3002 72.164 49.4335 72.5533 49.7002 72.788C49.9775 73.012 50.4628 73.124 51.1562 73.124H52.6762V71.876C52.6762 71.14 52.5268 70.5853 52.2282 70.212C51.9295 69.8387 51.4975 69.652 50.9322 69.652C50.4415 69.652 50.0468 69.8333 49.7482 70.196C49.4495 70.5587 49.3002 71.0333 49.3002 71.62ZM65.2569 68.308C65.8756 68.308 66.3769 68.452 66.7609 68.74C67.1556 69.0173 67.3529 69.4333 67.3529 69.988C67.3529 70.4147 67.2089 70.8307 66.9209 71.236C66.6436 71.6307 66.0996 72.1747 65.2889 72.868C65.4489 72.964 65.6569 73.0333 65.9129 73.076C66.1796 73.108 66.5849 73.124 67.1289 73.124H68.6969C68.7503 73.124 68.7876 73.172 68.8089 73.268C68.8409 73.3533 68.8569 73.54 68.8569 73.828C68.8569 74.1053 68.8409 74.2867 68.8089 74.372C68.7876 74.4573 68.7503 74.5 68.6969 74.5H67.1289C66.4356 74.5 65.8863 74.4787 65.4809 74.436C65.0863 74.3827 64.7609 74.2973 64.5049 74.18C64.2596 74.0627 64.0249 73.8973 63.8009 73.684C63.0543 74.1427 62.5156 74.612 62.1849 75.092C61.8649 75.572 61.7049 76.084 61.7049 76.628C61.7049 77.332 61.9236 77.8493 62.3609 78.18C62.7983 78.5107 63.5129 78.676 64.5049 78.676H67.6249L67.4969 80.052H64.4249C63.0276 80.052 62.0036 79.7747 61.3529 79.22C60.7023 78.6653 60.3769 77.8173 60.3769 76.676C60.3769 75.9507 60.5583 75.2733 60.9209 74.644C61.2943 74.0147 61.8703 73.4227 62.6489 72.868L60.4249 69.652L61.1609 68.308H65.2569ZM66.0569 70.26C66.0569 70.0467 65.9716 69.8813 65.8009 69.764C65.6303 69.6467 65.3849 69.588 65.0649 69.588H61.8969L63.9449 72.58C64.7876 71.876 65.3476 71.3693 65.6249 71.06C65.9129 70.74 66.0569 70.4733 66.0569 70.26ZM72.5467 73.124C72.9307 73.124 73.24 73.0227 73.4747 72.82C73.7093 72.6067 73.8267 72.3133 73.8267 71.94V69.348H75.1707V71.956C75.1707 72.7453 74.9307 73.3693 74.4507 73.828C73.9707 74.276 73.336 74.5 72.5467 74.5H68.6907C68.584 74.5 68.5307 74.276 68.5307 73.828C68.5307 73.3587 68.584 73.124 68.6907 73.124H72.5467ZM73.0747 76.516V77.78H68.8507V76.516H73.0747ZM75.809 77.028C76.7157 77.028 77.425 76.7613 77.937 76.228C78.449 75.7053 78.705 74.9747 78.705 74.036V69.348H80.033V71.892C80.033 72.2867 80.145 72.5907 80.369 72.804C80.6037 73.0173 80.9397 73.124 81.377 73.124H81.585C81.6917 73.124 81.745 73.3587 81.745 73.828C81.745 74.276 81.6917 74.5 81.585 74.5H81.377C81.089 74.5 80.8224 74.452 80.577 74.356C80.3317 74.2493 80.1504 74.116 80.033 73.956V74.148C80.0224 75.0013 79.841 75.748 79.489 76.388C79.137 77.0387 78.6464 77.5347 78.017 77.876C77.3877 78.228 76.6624 78.404 75.841 78.404H75.393L75.265 77.028H75.809ZM83.9813 73.124C84.088 73.124 84.1413 73.3587 84.1413 73.828C84.1413 74.116 84.1253 74.3027 84.0933 74.388C84.0613 74.4627 84.024 74.5 83.9813 74.5H81.5813C81.4746 74.5 81.4213 74.276 81.4213 73.828C81.4213 73.3587 81.4746 73.124 81.5813 73.124H83.9813ZM86.3875 73.124C86.4942 73.124 86.5475 73.3587 86.5475 73.828C86.5475 74.116 86.5315 74.3027 86.4995 74.388C86.4675 74.4627 86.4302 74.5 86.3875 74.5H83.9875C83.8809 74.5 83.8275 74.276 83.8275 73.828C83.8275 73.3587 83.8809 73.124 83.9875 73.124H86.3875ZM88.7938 73.124C88.9005 73.124 88.9538 73.3587 88.9538 73.828C88.9538 74.116 88.9378 74.3027 88.9058 74.388C88.8738 74.4627 88.8365 74.5 88.7938 74.5H86.3938C86.2871 74.5 86.2338 74.276 86.2338 73.828C86.2338 73.3587 86.2871 73.124 86.3938 73.124H88.7938ZM90.048 73.124C90.5174 73.124 90.88 73.012 91.136 72.788C91.4027 72.564 91.536 72.2547 91.536 71.86V69.348H92.88V71.86C92.88 72.7027 93.3547 73.124 94.304 73.124C94.7734 73.124 95.136 73.012 95.392 72.788C95.6587 72.564 95.792 72.2547 95.792 71.86V69.348H97.12V71.86C97.12 72.2653 97.232 72.58 97.456 72.804C97.6907 73.0173 98.032 73.124 98.48 73.124C98.928 73.124 99.2694 73.0173 99.504 72.804C99.7387 72.58 99.856 72.2653 99.856 71.86V69.348H101.184V71.828C101.184 72.66 100.939 73.316 100.448 73.796C99.968 74.2653 99.312 74.5 98.48 74.5C97.4027 74.5 96.7094 74.1693 96.4 73.508C96.0054 74.1693 95.3067 74.5 94.304 74.5C93.1734 74.5 92.4534 74.1693 92.144 73.508C91.7494 74.1693 91.0507 74.5 90.048 74.5H88.8C88.6934 74.5 88.64 74.276 88.64 73.828C88.64 73.3587 88.6934 73.124 88.8 73.124H90.048Z"
        fill="white" />
</svg>